Coordinates
version=1
nRows=29
nColumns=24
inDegrees=yes

Units are S.I. units (second, meters, Newtons, ...)
Angles are in degrees.

endheader
time	pelvis_tilt	pelvis_list	pelvis_rotation	pelvis_tx	pelvis_ty	pelvis_tz	hip_flexion_r	hip_adduction_r	hip_rotation_r	knee_angle_r	ankle_angle_r	subtalar_angle_r	mtp_angle_r	hip_flexion_l	hip_adduction_l	hip_rotation_l	knee_angle_l	ankle_angle_l	subtalar_angle_l	mtp_angle_l	lumbar_extension	lumbar_bending	lumbar_rotation
      0.36700000	     -6.61023927	      4.31308246	      0.57453319	     -0.81071637	      1.02379831	      0.26562286	     36.13809179	     -3.45300584	     -0.57990350	     -7.19615536	      8.28942686	     -3.68306423	      9.93144195	    -12.41402929	      5.75863969	      1.26940762	     -3.60848739	     18.91445322	      8.93175870	      3.49865071	     -8.21655304	     -5.27509584	     -3.36134694
      0.37116667	     -6.61666007	      4.30451690	      0.70762684	     -0.80441774	      1.02290765	      0.26572294	     36.06806585	     -3.45834434	     -0.43889731	     -7.51511567	      8.25565183	     -3.81804404	      9.93102949	    -12.55999453	      5.69192370	      1.37095254	     -4.07123950	     19.01278307	      9.00295470	      3.51567227	     -8.15815919	     -5.16350441	     -3.34172752
      0.37533333	     -6.66654885	      4.27171282	      0.81955751	     -0.79804334	      1.02198399	      0.26590423	     36.00555757	     -3.41526116	     -0.13961818	     -7.79117289	      8.02704658	     -4.23226557	      9.93168922	    -12.60930684	      5.59075920	      1.22266046	     -4.64207173	     19.15133973	      9.46085395	      3.60324128	     -8.04787721	     -5.00589892	     -3.34932940
      0.37950000	     -6.68028804	      4.23246742	      0.93620323	     -0.79163959	      1.02116009	      0.26605908	     35.91929239	     -3.37675305	      0.04554661	     -8.13817359	      7.84665041	     -4.49738315	      9.94285447	    -12.69080871	      5.48009784	      1.10471981	     -5.22760988	     19.28199000	      9.86491818	      3.73313441	     -7.97707760	     -4.84746855	     -3.31454090
      0.38366667	     -6.69463593	      4.18814727	      1.04668236	     -0.78519738	      1.02037560	      0.26623327	     35.83245144	     -3.32915993	      0.22174537	     -8.51296723	      7.61855948	     -4.77593570	      9.95982012	    -12.77429359	      5.36367048	      1.03063885	     -5.80664682	     19.35525138	     10.18605006	      3.88779341	     -7.89834330	     -4.67789453	     -3.28540501
      0.38783333	     -6.71971943	      4.13704477	      1.15529863	     -0.77872110	      1.01962840	      0.26642465	     35.75535098	     -3.27295681	      0.38902027	     -8.91151304	      7.33797380	     -5.07689576	      9.98366784	    -12.82314932	      5.23668952	      0.93075076	     -6.43365516	     19.41675543	     10.54021714	      4.08254947	     -7.80151939	     -4.50044238	     -3.25405907
      0.39200000	     -6.73789247	      4.07483946	      1.26208202	     -0.77221774	      1.01894969	      0.26663129	     35.66878079	     -3.20552835	      0.53423107	     -9.32742337	      7.00414797	     -5.38902258	     10.01443513	    -12.86171282	      5.09394676	      0.82206715	     -7.09715039	     19.44935041	     10.90023613	      4.32039013	     -7.71378138	     -4.30830055	     -3.21631016
      0.39616667	     -6.75947626	      4.00389690	      1.36251947	     -0.76568340	      1.01831501	      0.26685478	     35.58935986	     -3.12742764	      0.65683366	     -9.76901968	      6.62112450	     -5.70137630	     10.04772780	    -12.88638722	      4.94070652	      0.70382032	     -7.77823487	     19.45396651	     11.25587550	      4.58451526	     -7.61689203	     -4.10252658	     -3.16864115
      0.40033333	     -6.78197929	      3.92327125	      1.45957559	     -0.75911804	      1.01773977	      0.26709078	     35.51259463	     -3.03977840	      0.75872566	    -10.22839322	      6.18770369	     -6.02271261	     10.08493451	    -12.88823538	      4.77365622	      0.56586672	     -8.50304439	     19.43352299	     11.62873153	      4.89078114	     -7.51804472	     -3.88686025	     -3.11497334
      0.40450000	     -6.81905002	      3.85513192	      1.55938933	     -0.75256144	      1.01718324	      0.26733481	     35.48395921	     -2.97294888	      0.76408551	    -10.76360433	      5.78354493	     -6.17094991	     10.44373101	    -12.83857893	      4.61267695	      0.37691610	     -9.29248275	     19.35100123	     12.07824226	      7.41123797	     -7.40473310	     -3.69877534	     -3.04367295
      0.40866667	     -6.80611837	      3.74391257	      1.63336416	     -0.74595670	      1.01680089	      0.26762281	     35.36601206	     -2.84439035	      0.86636896	    -11.23176458	      5.22590616	     -6.59736740	     10.43623333	    -12.87035004	      4.41778589	      0.31551245	    -10.02351757	     19.21254778	     12.26487249	      7.50988360	     -7.34670882	     -3.42576379	     -2.99583511
      0.41283333	     -6.82921070	      3.64636481	      1.70801011	     -0.73935667	      1.01640052	      0.26793908	     35.31712241	     -2.73319896	      0.92454984	    -11.76966344	      4.69088962	     -6.90883289	     10.43474429	    -12.80407974	      4.22402929	      0.10783029	    -10.87093320	     19.08611510	     12.69355956	      7.71421807	     -7.25106686	     -3.19580591	     -2.91806602
      0.41700000	     -6.85497271	      3.52560337	      1.77718592	     -0.73271426	      1.01606444	      0.26825210	     35.27841612	     -2.60279110	      0.92528105	    -12.33406609	      4.17864758	     -7.18584746	     10.42998598	    -12.72349037	      4.00946510	     -0.05404345	    -11.74309265	     18.91485691	     13.01600382	      7.93751025	     -7.13146701	     -2.91754290	     -2.83609481
      0.42116667	     -6.79466282	      3.39036714	      1.83307112	     -0.72611014	      1.01592522	      0.26859866	     35.16585820	     -2.45926519	      0.86589843	    -12.93624531	      3.68089287	     -7.34655912	     10.42670554	    -12.69561347	      3.76330478	     -0.34271140	    -12.67705463	     18.72275485	     13.53875512	      9.02745993	     -7.15749385	     -2.62695533	     -2.73929515
      0.42533333	     -6.86085467	      3.29700475	      1.87617091	     -0.71948338	      1.01563805	      0.26901886	     35.20462838	     -2.33863363	      0.91538023	    -13.57065765	      3.12907154	     -7.68008570	     10.40756875	    -12.53269197	      3.58027304	     -0.47792385	    -13.60661415	     18.39429395	     13.76946241	      9.35464998	     -6.98880285	     -2.41300097	     -2.65582527
      0.42950000	     -6.86437229	      3.15590577	      1.91436550	     -0.71283695	      1.01551169	      0.26942502	     35.18567283	     -2.18213582	      0.86418433	    -14.23880040	      2.66497122	     -7.86854958	     10.38006060	    -12.39447106	      3.33297933	     -0.71499434	    -14.61892549	     18.09769960	     14.14611126	      9.75100365	     -6.90573090	     -2.11733837	     -2.54574326
      0.43366667	     -6.85448993	      3.01190912	      1.94946400	     -0.70618626	      1.01548467	      0.26983382	     35.16032131	     -2.02703874	      0.78662914	    -14.93062617	      2.25915625	     -7.98432891	     10.13502275	    -12.25905090	      3.08496917	     -0.90296345	    -15.63199659	     17.64773892	     14.36570759	     13.28974252	     -6.84655738	     -1.81300860	     -2.44599024
      0.43783333	     -6.85555508	      2.85991934	      1.96500011	     -0.69953172	      1.01547080	      0.27029987	     35.15855742	     -1.85330891	      0.72701345	    -15.65018878	      1.88091419	     -8.12214991	     10.11674858	    -12.07501479	      2.82527798	     -1.13713193	    -16.72811088	     17.24299035	     14.65229780	     13.36672773	     -6.76431584	     -1.50731964	     -2.30566823
      0.44200000	     -6.81726952	      2.71221251	      1.96884387	     -0.69290289	      1.01558357	      0.27080611	     35.12778459	     -1.68025230	      0.65265814	    -16.39982423	      1.54391468	     -8.22929423	     10.08036366	    -11.89656652	      2.55887916	     -1.42625953	    -17.87381498	     16.76728238	     15.03640874	     13.56468238	     -6.74465903	     -1.20925734	     -2.18772956
      0.44616667	     -6.79623344	      2.54422153	      1.96956306	     -0.68625697	      1.01571477	      0.27131611	     35.11108167	     -1.49091255	      0.56142731	    -17.14725606	      1.27304399	     -8.26350488	     10.04264180	    -11.67246191	      2.27202455	     -1.68726605	    -19.07477115	     16.26603346	     15.29841464	     13.76597695	     -6.69351079	     -0.88200358	     -2.04288788
      0.45033333	     -6.76107059	      2.37761997	      1.95406435	     -0.67962460	      1.01591695	      0.27187561	     35.08478845	     -1.29425533	      0.47804257	    -17.90900473	      1.04079217	     -8.29906073	      9.99126950	    -11.43195000	      1.97662772	     -1.99939229	    -20.32031039	     15.69129943	     15.63355799	     14.03786214	     -6.66811505	     -0.56042777	     -1.90270487
      0.45450000	     -6.70641432	      2.20810523	      1.92943032	     -0.67301856	      1.01618790	      0.27245885	     35.03614586	     -1.09214047	      0.38743820	    -18.66887427	      0.86468015	     -8.29885148	      9.92882630	    -11.17750421	      1.67353239	     -2.31034213	    -21.62331765	     15.06313893	     15.93309163	     14.36577374	     -6.66823639	     -0.23714686	     -1.75407833
      0.45866667	     -6.63681888	      2.04738357	      1.89522857	     -0.66644014	      1.01654041	      0.27307281	     34.96415833	     -0.89012822	      0.32357460	    -19.41515634	      0.69467592	     -8.35878136	      9.11293477	    -10.92121033	      1.37926600	     -2.59139648	    -22.92608186	     14.26521705	     16.12304980	     18.57532227	     -6.69733253	      0.07210274	     -1.61234203
      0.46283333	     -6.56420492	      1.87220221	      1.85131993	     -0.65986438	      1.01691656	      0.27369315	     34.88445339	     -0.67749088	      0.21818728	    -20.15741860	      0.66410266	     -8.24907609	      9.10452004	    -10.62339767	      1.06044620	     -2.91721821	    -24.32399547	     13.52904646	     16.35165320	     18.62855935	     -6.72123701	      0.40903763	     -1.46780796
      0.46700000	     -6.48246658	      1.69528240	      1.79821513	     -0.65332929	      1.01734097	      0.27435340	     34.77876594	     -0.45403633	      0.13740528	    -20.86197926	      0.61771020	     -8.20337762	      9.08200317	    -10.30346271	      0.72953854	     -3.25979290	    -25.76606552	     12.74787099	     16.59391484	     18.72695551	     -6.76462855	      0.73804680	     -1.30952871
      0.47116667	     -6.40419102	      1.51399316	      1.74137569	     -0.64682518	      1.01779351	      0.27502674	     34.65959902	     -0.22371609	      0.06013317	    -21.53088451	      0.60240175	     -8.15841000	      9.04862205	     -9.94782348	      0.38716481	     -3.59897530	    -27.25414073	     11.92439557	     16.80417141	     18.86030518	     -6.80732463	      1.06879256	     -1.15183198
      0.47533333	     -6.31531266	      1.33766470	      1.67783248	     -0.64036846	      1.01829116	      0.27572475	     34.51323938	      0.00694498	     -0.01073896	    -22.16556150	      0.62559593	     -8.10185179	      9.00690251	     -9.57263190	      0.04363617	     -3.93313753	    -28.78108793	     11.04973814	     16.96832714	     19.01614465	     -6.86815566	      1.39118654	     -0.99131589
      0.47950000	     -6.22727509	      1.15605096	      1.60774205	     -0.63395469	      1.01879848	      0.27643849	     34.35184966	      0.24831136	     -0.07533978	    -22.76635286	      0.67996694	     -8.06112221	      8.94964258	     -9.16733938	     -0.31343342	     -4.27073360	    -30.35194377	     10.15178971	     17.11740432	     19.20871176	     -6.94045019	      1.72936689	     -0.82104418
      0.48366667	     -6.10007187	      0.95957299	      1.53507692	     -0.62759935	      1.01943007	      0.27718492	     34.10454754	      0.51938185	     -0.08374439	    -23.27167131	      0.71799531	     -8.14723180	      8.22603771	     -8.77918624	     -0.69257266	     -4.58671855	    -31.93418429	      9.16398332	     17.13861975	     21.35471907	     -7.06427912	      2.05991872	     -0.55562756
